<svg width="5" height="8" viewBox="0 0 5 8" fill="none" xmlns="http://www.w3.org/2000/svg">
<path d="M0.162437 0.162414C0.270728 0.0541229 0.403385 -2.27021e-05 0.560408 -2.27021e-05C0.71743 -2.27021e-05 0.850087 0.0541229 0.958378 0.162414L4.39392 3.60608C4.50763 3.71978 4.56448 3.85109 4.56448 3.99999C4.56448 4.14889 4.50763 4.28019 4.39392 4.3939L0.958378 7.83756C0.850087 7.94585 0.71743 8 0.560408 8C0.403385 8 0.270728 7.94585 0.162437 7.83756C0.0541457 7.72927 0 7.59797 0 7.44365C0 7.28934 0.0541457 7.15803 0.162437 7.04974L3.20813 4.00405L0.162437 0.958355C0.0541457 0.850064 0 0.717408 0 0.560385C0 0.403362 0.0541457 0.270706 0.162437 0.162414Z" fill="#14142B"/>
</svg>
