<svg width="5" height="8" viewBox="0 0 5 8" fill="none" xmlns="http://www.w3.org/2000/svg">
<path d="M4.39392 0.162414C4.50221 0.270706 4.55636 0.403362 4.55636 0.560385C4.55636 0.717408 4.50221 0.850064 4.39392 0.958355L1.35635 4.00405L4.39392 7.04974C4.50221 7.15803 4.55636 7.28934 4.55636 7.44365C4.55636 7.59797 4.50357 7.72927 4.39798 7.83756C4.2924 7.94585 4.16109 8 4.00407 8C3.84705 8 3.71439 7.94585 3.6061 7.83756L0.162437 4.3939C0.0541457 4.28561 0 4.1543 0 3.99999C0 3.84567 0.0541457 3.71437 0.162437 3.60608L3.6061 0.162414C3.71439 0.0541229 3.84705 -2.27021e-05 4.00407 -2.27021e-05C4.16109 -2.27021e-05 4.29104 0.0541229 4.39392 0.162414Z" fill="#14142B"/>
</svg>
