<svg width="34" height="34" viewBox="0 0 34 34" fill="none" xmlns="http://www.w3.org/2000/svg">
<path d="M13.3834 22.7846C13.0749 21.7412 12.2588 20.9251 11.2154 20.6166L0.287501 17.3848C-0.0958024 17.2714 -0.0958031 16.7285 0.2875 16.6152L11.2154 13.3834C12.2588 13.0748 13.0749 12.2588 13.3834 11.2154L16.6152 0.287489C16.7286 -0.0958139 17.2714 -0.0958146 17.3848 0.287489L20.6166 11.2154C20.9251 12.2588 21.7412 13.0748 22.7846 13.3834L33.7125 16.6152C34.0958 16.7285 34.0958 17.2714 33.7125 17.3848L22.7846 20.6166C21.7412 20.9251 20.9251 21.7412 20.6166 22.7846L17.3848 33.7125C17.2714 34.0958 16.7286 34.0958 16.6152 33.7125L13.3834 22.7846Z" fill="#B9FD50" fill-opacity="0.25"/>
</svg>
